<svg xmlns="http://www.w3.org/2000/svg" viewBox="0 0 48 48">
  
<g transform="matrix(3.4285714285714284,0,0,3.4285714285714284,0,0)"><g>
    <path d="M3.25,10a.75.75,0,1,0,.75.75A.76.76,0,0,0,3.25,10Z" style="fill: #F2FBFF"></path>
    <path d="M1.25,12.5a.75.75,0,1,0,.75.75.76.76,0,0,0-.75-.75Z" style="fill: #F2FBFF"></path>
    <path d="M7.25,10a.75.75,0,1,0,.75.75A.76.76,0,0,0,7.25,10Z" style="fill: #F2FBFF"></path>
    <path d="M5,12.5a.75.75,0,1,0,.75.75A.76.76,0,0,0,5,12.5Z" style="fill: #F2FBFF"></path>
    <path d="M10.75,10a.75.75,0,1,0,.75.75.76.76,0,0,0-.75-.75Z" style="fill: #F2FBFF"></path>
    <path d="M9,12.5a.75.75,0,1,0,.75.75A.76.76,0,0,0,9,12.5Z" style="fill: #F2FBFF"></path>
    <path d="M12.75,12.5a.75.75,0,1,0,.75.75.76.76,0,0,0-.75-.75Z" style="fill: #F2FBFF"></path>
    <path d="M11,8a2.5,2.5,0,1,0-.62-4.92,3.5,3.5,0,0,0-6.76,0A2.5,2.5,0,1,0,3,8Z" style="fill: none;stroke: #F2FBFF;stroke-linecap: round;stroke-linejoin: round"></path>
  </g></g></svg>