<svg id="visual" viewBox="0 0 900 600" width="900" height="600" xmlns="http://www.w3.org/2000/svg" xmlns:xlink="http://www.w3.org/1999/xlink" version="1.1"><g stroke-width="1" stroke-linejoin="bevel"><path d="M461 293L414 224L381 329Z" fill="#42c2ff" stroke="#42c2ff"></path><path d="M381 329L464 411L461 293Z" fill="#00dbf5" stroke="#00dbf5"></path><path d="M393 419L464 411L381 329Z" fill="#00e7df" stroke="#00e7df"></path><path d="M414 224L261 290L381 329Z" fill="#42c2ff" stroke="#42c2ff"></path><path d="M381 329L274 426L393 419Z" fill="#42c2ff" stroke="#42c2ff"></path><path d="M568 208L539 184L461 293Z" fill="#00def0" stroke="#00def0"></path><path d="M461 293L539 184L414 224Z" fill="#00d7f8" stroke="#00d7f8"></path><path d="M303 126L275 182L414 224Z" fill="#35c6ff" stroke="#35c6ff"></path><path d="M414 224L275 182L261 290Z" fill="#35c6ff" stroke="#35c6ff"></path><path d="M601 291L568 208L461 293Z" fill="#00d7f8" stroke="#00d7f8"></path><path d="M275 182L222 280L261 290Z" fill="#00e7df" stroke="#00e7df"></path><path d="M261 290L274 426L381 329Z" fill="#07d3fb" stroke="#07d3fb"></path><path d="M410 92L303 126L414 224Z" fill="#00e1eb" stroke="#00e1eb"></path><path d="M275 182L204 182L222 280Z" fill="#00e1eb" stroke="#00e1eb"></path><path d="M466 86L410 92L414 224Z" fill="#00dbf5" stroke="#00dbf5"></path><path d="M464 411L601 291L461 293Z" fill="#27cbfe" stroke="#27cbfe"></path><path d="M207 379L274 426L261 290Z" fill="#27cbfe" stroke="#27cbfe"></path><path d="M539 184L466 86L414 224Z" fill="#42c2ff" stroke="#42c2ff"></path><path d="M616 119L466 86L539 184Z" fill="#00e4e6" stroke="#00e4e6"></path><path d="M415 512L499 465L464 411Z" fill="#00e1eb" stroke="#00e1eb"></path><path d="M464 411L630 419L601 291Z" fill="#35c6ff" stroke="#35c6ff"></path><path d="M415 512L464 411L393 419Z" fill="#42c2ff" stroke="#42c2ff"></path><path d="M222 280L207 379L261 290Z" fill="#42c2ff" stroke="#42c2ff"></path><path d="M233 102L204 182L275 182Z" fill="#00def0" stroke="#00def0"></path><path d="M77 328L104 401L207 379Z" fill="#00dbf5" stroke="#00dbf5"></path><path d="M309 532L415 512L393 419Z" fill="#27cbfe" stroke="#27cbfe"></path><path d="M289 0L233 102L303 126Z" fill="#00e4e6" stroke="#00e4e6"></path><path d="M303 126L233 102L275 182Z" fill="#35c6ff" stroke="#35c6ff"></path><path d="M367 0L303 126L410 92Z" fill="#00def0" stroke="#00def0"></path><path d="M582 478L630 419L499 465Z" fill="#35c6ff" stroke="#35c6ff"></path><path d="M499 465L630 419L464 411Z" fill="#00e1eb" stroke="#00e1eb"></path><path d="M679 207L616 119L568 208Z" fill="#42c2ff" stroke="#42c2ff"></path><path d="M568 208L616 119L539 184Z" fill="#00e7df" stroke="#00e7df"></path><path d="M679 207L568 208L601 291Z" fill="#00e1eb" stroke="#00e1eb"></path><path d="M207 379L221 468L274 426Z" fill="#00dbf5" stroke="#00dbf5"></path><path d="M274 426L309 532L393 419Z" fill="#00d7f8" stroke="#00d7f8"></path><path d="M476 600L582 478L499 465Z" fill="#07d3fb" stroke="#07d3fb"></path><path d="M221 468L309 532L274 426Z" fill="#00d7f8" stroke="#00d7f8"></path><path d="M125 63L136 227L204 182Z" fill="#07d3fb" stroke="#07d3fb"></path><path d="M204 182L136 227L222 280Z" fill="#00e7df" stroke="#00e7df"></path><path d="M207 379L104 401L221 468Z" fill="#07d3fb" stroke="#07d3fb"></path><path d="M725 278L679 207L601 291Z" fill="#00dbf5" stroke="#00dbf5"></path><path d="M483 0L367 0L410 92Z" fill="#00dbf5" stroke="#00dbf5"></path><path d="M483 0L410 92L466 86Z" fill="#00e1eb" stroke="#00e1eb"></path><path d="M582 478L661 416L630 419Z" fill="#00e7df" stroke="#00e7df"></path><path d="M630 419L661 416L601 291Z" fill="#00def0" stroke="#00def0"></path><path d="M563 0L483 0L466 86Z" fill="#00d7f8" stroke="#00d7f8"></path><path d="M367 0L289 0L303 126Z" fill="#00def0" stroke="#00def0"></path><path d="M233 102L125 63L204 182Z" fill="#00def0" stroke="#00def0"></path><path d="M661 416L725 278L601 291Z" fill="#17cffd" stroke="#17cffd"></path><path d="M694 0L563 0L616 119Z" fill="#00e7df" stroke="#00e7df"></path><path d="M616 119L563 0L466 86Z" fill="#00def0" stroke="#00def0"></path><path d="M722 83L616 119L679 207Z" fill="#00e1eb" stroke="#00e1eb"></path><path d="M309 532L396 600L415 512Z" fill="#00def0" stroke="#00def0"></path><path d="M415 512L476 600L499 465Z" fill="#17cffd" stroke="#17cffd"></path><path d="M279 600L396 600L309 532Z" fill="#00e7df" stroke="#00e7df"></path><path d="M77 328L207 379L222 280Z" fill="#00e4e6" stroke="#00e4e6"></path><path d="M223 600L279 600L309 532Z" fill="#42c2ff" stroke="#42c2ff"></path><path d="M396 600L476 600L415 512Z" fill="#00e7df" stroke="#00e7df"></path><path d="M582 478L727 482L661 416Z" fill="#00d7f8" stroke="#00d7f8"></path><path d="M136 227L77 328L222 280Z" fill="#00e1eb" stroke="#00e1eb"></path><path d="M223 600L309 532L221 468Z" fill="#07d3fb" stroke="#07d3fb"></path><path d="M289 0L203 0L233 102Z" fill="#00dbf5" stroke="#00dbf5"></path><path d="M0 234L0 311L77 328Z" fill="#07d3fb" stroke="#07d3fb"></path><path d="M203 0L125 63L233 102Z" fill="#27cbfe" stroke="#27cbfe"></path><path d="M92 518L223 600L221 468Z" fill="#27cbfe" stroke="#27cbfe"></path><path d="M773 75L722 83L837 169Z" fill="#42c2ff" stroke="#42c2ff"></path><path d="M660 600L727 482L582 478Z" fill="#42c2ff" stroke="#42c2ff"></path><path d="M800 411L787 292L725 278Z" fill="#00e7df" stroke="#00e7df"></path><path d="M800 411L725 278L661 416Z" fill="#00e4e6" stroke="#00e4e6"></path><path d="M725 278L837 169L679 207Z" fill="#07d3fb" stroke="#07d3fb"></path><path d="M476 600L631 600L582 478Z" fill="#00e1eb" stroke="#00e1eb"></path><path d="M0 429L92 518L104 401Z" fill="#07d3fb" stroke="#07d3fb"></path><path d="M104 401L92 518L221 468Z" fill="#07d3fb" stroke="#07d3fb"></path><path d="M722 83L694 0L616 119Z" fill="#27cbfe" stroke="#27cbfe"></path><path d="M0 234L77 328L136 227Z" fill="#27cbfe" stroke="#27cbfe"></path><path d="M77 328L0 429L104 401Z" fill="#00dbf5" stroke="#00dbf5"></path><path d="M631 600L660 600L582 478Z" fill="#27cbfe" stroke="#27cbfe"></path><path d="M0 134L0 234L136 227Z" fill="#00dbf5" stroke="#00dbf5"></path><path d="M774 515L800 411L727 482Z" fill="#27cbfe" stroke="#27cbfe"></path><path d="M727 482L800 411L661 416Z" fill="#00e7df" stroke="#00e7df"></path><path d="M837 169L722 83L679 207Z" fill="#00dbf5" stroke="#00dbf5"></path><path d="M722 83L763 0L694 0Z" fill="#00e4e6" stroke="#00e4e6"></path><path d="M837 169L725 278L787 292Z" fill="#00def0" stroke="#00def0"></path><path d="M76 0L0 134L125 63Z" fill="#42c2ff" stroke="#42c2ff"></path><path d="M125 63L0 134L136 227Z" fill="#00e7df" stroke="#00e7df"></path><path d="M203 0L76 0L125 63Z" fill="#42c2ff" stroke="#42c2ff"></path><path d="M0 311L0 429L77 328Z" fill="#35c6ff" stroke="#35c6ff"></path><path d="M660 600L774 515L727 482Z" fill="#35c6ff" stroke="#35c6ff"></path><path d="M900 262L837 169L787 292Z" fill="#35c6ff" stroke="#35c6ff"></path><path d="M900 0L763 0L773 75Z" fill="#00def0" stroke="#00def0"></path><path d="M773 75L763 0L722 83Z" fill="#00e1eb" stroke="#00e1eb"></path><path d="M92 518L71 600L223 600Z" fill="#42c2ff" stroke="#42c2ff"></path><path d="M0 504L71 600L92 518Z" fill="#00e1eb" stroke="#00e1eb"></path><path d="M0 429L0 504L92 518Z" fill="#42c2ff" stroke="#42c2ff"></path><path d="M76 0L0 0L0 134Z" fill="#07d3fb" stroke="#07d3fb"></path><path d="M900 365L900 262L787 292Z" fill="#00dbf5" stroke="#00dbf5"></path><path d="M837 169L900 83L773 75Z" fill="#00e7df" stroke="#00e7df"></path><path d="M900 365L787 292L800 411Z" fill="#42c2ff" stroke="#42c2ff"></path><path d="M900 262L900 212L837 169Z" fill="#00dbf5" stroke="#00dbf5"></path><path d="M900 506L900 365L800 411Z" fill="#00e4e6" stroke="#00e4e6"></path><path d="M660 600L803 600L774 515Z" fill="#00def0" stroke="#00def0"></path><path d="M774 515L900 506L800 411Z" fill="#00e4e6" stroke="#00e4e6"></path><path d="M0 504L0 600L71 600Z" fill="#00e7df" stroke="#00e7df"></path><path d="M900 212L900 83L837 169Z" fill="#00e7df" stroke="#00e7df"></path><path d="M803 600L900 506L774 515Z" fill="#00dbf5" stroke="#00dbf5"></path><path d="M900 83L900 0L773 75Z" fill="#42c2ff" stroke="#42c2ff"></path><path d="M803 600L900 600L900 506Z" fill="#42c2ff" stroke="#42c2ff"></path></g></svg>