<svg id="visual" viewBox="0 0 900 600" width="900" height="600" xmlns="http://www.w3.org/2000/svg" xmlns:xlink="http://www.w3.org/1999/xlink" version="1.1"><path d="M0 43L100 31L200 31L300 19L400 37L500 19L600 19L700 43L800 19L900 25L900 0L800 0L700 0L600 0L500 0L400 0L300 0L200 0L100 0L0 0Z" fill="#00e7df"></path><path d="M0 187L100 181L200 157L300 127L400 163L500 97L600 91L700 127L800 97L900 103L900 23L800 17L700 41L600 17L500 17L400 35L300 17L200 29L100 29L0 41Z" fill="#00e4e6"></path><path d="M0 205L100 211L200 181L300 175L400 211L500 127L600 109L700 151L800 133L900 133L900 101L800 95L700 125L600 89L500 95L400 161L300 125L200 155L100 179L0 185Z" fill="#00e0ed"></path><path d="M0 229L100 247L200 223L300 199L400 247L500 169L600 163L700 205L800 157L900 181L900 131L800 131L700 149L600 107L500 125L400 209L300 173L200 179L100 209L0 203Z" fill="#00ddf2"></path><path d="M0 337L100 349L200 397L300 367L400 361L500 349L600 349L700 349L800 349L900 313L900 179L800 155L700 203L600 161L500 167L400 245L300 197L200 221L100 245L0 227Z" fill="#00d9f6"></path><path d="M0 373L100 403L200 433L300 445L400 403L500 391L600 403L700 415L800 397L900 361L900 311L800 347L700 347L600 347L500 347L400 359L300 365L200 395L100 347L0 335Z" fill="#02d5fa"></path><path d="M0 433L100 457L200 505L300 481L400 439L500 433L600 463L700 475L800 469L900 427L900 359L800 395L700 413L600 401L500 389L400 401L300 443L200 431L100 401L0 371Z" fill="#12d0fc"></path><path d="M0 481L100 481L200 535L300 535L400 469L500 469L600 517L700 517L800 517L900 487L900 425L800 467L700 473L600 461L500 431L400 437L300 479L200 503L100 455L0 431Z" fill="#23ccfe"></path><path d="M0 499L100 517L200 553L300 553L400 493L500 487L600 553L700 535L800 535L900 505L900 485L800 515L700 515L600 515L500 467L400 467L300 533L200 533L100 479L0 479Z" fill="#33c7ff"></path><path d="M0 601L100 601L200 601L300 601L400 601L500 601L600 601L700 601L800 601L900 601L900 503L800 533L700 533L600 551L500 485L400 491L300 551L200 551L100 515L0 497Z" fill="#42c2ff"></path></svg>